<svg xmlns="http://www.w3.org/2000/svg" xmlns:xlink="http://www.w3.org/1999/xlink" version="1.1" width="1129" height="369" viewBox="0 0 1129 369">
<g>
<path stroke-width="1" stroke-linecap="butt" stroke-miterlimit="10" stroke-linejoin="miter" fill="none" stroke="#000000" d="M475 109.5H620C626 109.5 632 103.5 632 97.5V52.5C632 46.5 626 40.5 620 40.5H475C469 40.5 463 46.5 463 52.5V97.5C463 103.5 469 109.5 475 109.5"/>
<text xml:space="preserve" transform="matrix(1 0 0 1 0 0)" font-size="14.000244" font-family="TimesNewRomanPSMT"><tspan y="55.69922" x="471 474.73808 481.48619 485.22425 491.97236 495.71043 502.45854 509.22065 512.9587 519.7068 526.4549 530.19296 536.94107 543.68917 550.43728 557.18539 561.6935 567.68557 573.66366 580.41177 587.1739 593.922 599.9001 606.66226 612.6403 616.37838">/bin/nginx:ngx_readv_chain</tspan></text>
<path stroke-width="1" stroke-linecap="butt" stroke-miterlimit="10" stroke-linejoin="miter" fill="none" stroke="#000000" d="M463 63.5H632"/>
<text xml:space="preserve" transform="matrix(1 0 0 1 0 0)" font-size="14.000244" font-family="TimesNewRomanPSMT"><tspan y="90.19922" x="474.5 484.24418">NF</tspan></text>
<path stroke-width="1" stroke-linecap="butt" stroke-miterlimit="10" stroke-linejoin="miter" fill="none" stroke="#000000" d="M504 109.5V63.5"/>
<text xml:space="preserve" transform="matrix(1 0 0 1 0 0)" font-size="14.000244" font-family="TimesNewRomanPSMT"><tspan y="78.69922" x="540.5 547.2481 553.9962 557.73428 564.48239 571.2445 574.98257 581.73068 588.47879">nginx:443</tspan></text>
<path stroke-width="1" stroke-linecap="butt" stroke-miterlimit="10" stroke-linejoin="miter" fill="none" stroke="#000000" d="M504 86.5H632"/>
<text xml:space="preserve" transform="matrix(1 0 0 1 0 0)" font-size="14.000244" font-family="TimesNewRomanPSMT"><tspan y="101.69922" x="515.5 522.2481 528.9962 532.73428 538.7263 545.4744 552.22256 555.9746 561.22476 567.2168 571.7109 578.459 584.45108 588.9451 592.68319 599.4453 606.1934 612.9415">golang.server:8080</tspan></text>
<path stroke-width="1" stroke-linecap="butt" stroke-miterlimit="10" stroke-linejoin="miter" fill="none" stroke="#000000" d="M450 207.5H645C651 207.5 657 201.5 657 195.5V173.5C657 167.5 651 161.5 645 161.5H450C444 161.5 438 167.5 438 173.5V195.5C438 201.5 444 207.5 450 207.5"/>
<text xml:space="preserve" transform="matrix(1 0 0 1 0 0)" font-size="14.000244" font-family="TimesNewRomanPSMT"><tspan y="176.69922" x="455 458.73808 465.48619 469.22425 475.97236 479.71043 486.45854 493.22065 496.9587 503.70683 510.45494 514.193 520.9411 527.6892 534.4373 541.1854 550.9436 555.4377 559.1757 562.91378 568.9058 575.65396 580.148 586.91018 599.6364 606.3845 613.14669 619.8948 625.87289 632.635">/bin/nginx:ngx_write_fd@40da68</tspan></text>
<path stroke-width="1" stroke-linecap="butt" stroke-miterlimit="10" stroke-linejoin="miter" fill="none" stroke="#000000" d="M438 184.5H657"/>
<text xml:space="preserve" transform="matrix(1 0 0 1 0 0)" font-size="14.000244" font-family="TimesNewRomanPSMT"><tspan y="199.69922" x="446 453.50416">FF</tspan></text>
<path stroke-width="1" stroke-linecap="butt" stroke-miterlimit="10" stroke-linejoin="miter" fill="none" stroke="#000000" d="M470 207.5V184.5"/>
<text xml:space="preserve" transform="matrix(1 0 0 1 0 0)" font-size="14.000244" font-family="TimesNewRomanPSMT"><tspan y="199.69922" x="478 481.73808 488.48619 493.73628 498.23036 501.9684 505.70649 512.4686 518.4467 524.4388 528.1768 531.91488 538.66299 545.4111 549.1491 555.8972 562.65939 566.3974 570.13546 576.88357 583.63168 588.8818 592.6198 598.5979 604.58999 610.58206 616.5741 621.8102 627.0603 630.8124 634.5504 641.2985">/usr/local/nginx/logs/access.log</tspan></text>
<path stroke-width="1" stroke-linecap="butt" stroke-miterlimit="10" stroke-linejoin="miter" fill="none" stroke="#000000" d="M520.137 109.469C514.648 119.992 511.609 131.797 515.5 143 516.648 146.301 518.188 149.535 519.973 152.648"/>
<path d="M523.285 150.305 525.93 160.566 517.465 154.191ZM523.285 150.305"/>
<path stroke-width="1" stroke-linecap="butt" stroke-miterlimit="10" stroke-linejoin="miter" fill="none" stroke="#000000" d="M523.285 150.305 525.93 160.566 517.465 154.191ZM523.285 150.305"/>
<text xml:space="preserve" transform="matrix(1 0 0 1 0 0)" font-size="14.000244" font-family="TimesNewRomanPSMT"><tspan y="139.19922" x="515.5 528.98226 537.9704 542.4785 550.7107">WRITE</tspan></text>
<path stroke-width="1" stroke-linecap="butt" stroke-miterlimit="10" stroke-linejoin="miter" fill="none" stroke="#000000" d="M52 328.5H183C189 328.5 195 322.5 195 316.5V271.5C195 265.5 189 259.5 183 259.5H52C46 259.5 40 265.5 40 271.5V316.5C40 322.5 46 328.5 52 328.5"/>
<text xml:space="preserve" transform="matrix(1 0 0 1 0 0)" font-size="14.000244" font-family="TimesNewRomanPSMT"><tspan y="274.69923" x="57 60.738065 67.48618 71.22425 77.97237 81.710437 88.45855 95.220668 98.95873 105.70685 112.45496 116.19303 122.94115 129.68927 136.4374 143.18552 152.9437 157.43778 161.17584 164.91391 170.906">/bin/nginx:ngx_writev</tspan></text>
<path stroke-width="1" stroke-linecap="butt" stroke-miterlimit="10" stroke-linejoin="miter" fill="none" stroke="#000000" d="M40 282.5H195"/>
<text xml:space="preserve" transform="matrix(1 0 0 1 0 0)" font-size="14.000244" font-family="TimesNewRomanPSMT"><tspan y="309.19923" x="48 57.74417">NF</tspan></text>
<path stroke-width="1" stroke-linecap="butt" stroke-miterlimit="10" stroke-linejoin="miter" fill="none" stroke="#000000" d="M74 328.5V282.5"/>
<text xml:space="preserve" transform="matrix(1 0 0 1 0 0)" font-size="14.000244" font-family="TimesNewRomanPSMT"><tspan y="297.69923" x="107 113.748119 120.49623 124.2343 130.98242 137.74454 141.4826 148.23073 154.97885">nginx:443</tspan></text>
<path stroke-width="1" stroke-linecap="butt" stroke-miterlimit="10" stroke-linejoin="miter" fill="none" stroke="#000000" d="M74 305.5H195"/>
<text xml:space="preserve" transform="matrix(1 0 0 1 0 0)" font-size="14.000244" font-family="TimesNewRomanPSMT"><tspan y="320.69923" x="82 88.748119 95.49623 99.2343 105.2264 111.97452 118.72263 122.4747 127.72479 133.71689 138.21097 144.95909 150.95119 155.44527 159.18334 165.94545 172.69358 179.4417">golang.server:8080</tspan></text>
<path stroke-width="1" stroke-linecap="butt" stroke-miterlimit="10" stroke-linejoin="miter" fill="none" stroke="#000000" d="M194.781 262.227C197.723 261.129 200.637 260.047 203.5 259 246.66 243.211 256.902 237.102 301.5 226 342.078 215.898 387.07 207.652 427.359 201.301"/>
<path d="M426.621 197.719 437.039 199.645 427.695 204.637ZM426.621 197.719"/>
<path stroke-width="1" stroke-linecap="butt" stroke-miterlimit="10" stroke-linejoin="miter" fill="none" stroke="#000000" d="M426.621 197.719 437.039 199.645 427.695 204.637ZM426.621 197.719"/>
<text xml:space="preserve" transform="matrix(1 0 0 1 0 0)" font-size="14.000244" font-family="TimesNewRomanPSMT"><tspan y="237.19922" x="301.5 314.98225 323.9704 328.4785 336.71064">WRITE</tspan></text>
<path stroke-width="1" stroke-linecap="butt" stroke-miterlimit="10" stroke-linejoin="miter" fill="none" stroke="#000000" d="M225 317H412C418 317 424 311 424 305V283C424 277 418 271 412 271H225C219 271 213 277 213 283V305C213 311 219 317 225 317"/>
<text xml:space="preserve" transform="matrix(1 0 0 1 0 0)" font-size="14.000244" font-family="TimesNewRomanPSMT"><tspan y="286.19923" x="221 224.73807 231.48619 235.22426 241.97238 245.71045 252.45858 259.22068 262.95875 269.70686 276.45497 280.19303 286.94114 293.68925 300.43736 307.18547 313.17759 319.9257 325.91783 332.66593 336.404 343.1521 349.14424 355.89234 362.64045 369.38856 375.38069 381.3728 385.11088 391.85899 398.6071 404.5992 410.59135">/bin/nginx:ngx_event_connect_peer</tspan></text>
<path stroke-width="1" stroke-linecap="butt" stroke-miterlimit="10" stroke-linejoin="miter" fill="none" stroke="#000000" d="M213 294H424"/>
<text xml:space="preserve" transform="matrix(1 0 0 1 0 0)" font-size="14.000244" font-family="TimesNewRomanPSMT"><tspan y="309.19923" x="235 244.74417">NF</tspan></text>
<path stroke-width="1" stroke-linecap="butt" stroke-miterlimit="10" stroke-linejoin="miter" fill="none" stroke="#000000" d="M275 317V294"/>
<text xml:space="preserve" transform="matrix(1 0 0 1 0 0)" font-size="14.000244" font-family="TimesNewRomanPSMT"><tspan y="309.19923" x="297 303.7481 310.49623 314.23429 320.2264 326.97453 333.72264 337.4747 342.7248 348.71693 353.211 359.9591 365.95124 370.4453 374.18339 380.9455 387.6936 394.4417">golang.server:8080</tspan></text>
<path stroke-width="1" stroke-linecap="butt" stroke-miterlimit="10" stroke-linejoin="miter" fill="none" stroke="#000000" d="M365.051 271.148C401.562 254.008 452.52 230.086 491.301 211.883"/>
<path d="M489.344 208.465 499.883 207.383 492.316 214.801ZM489.344 208.465"/>
<path stroke-width="1" stroke-linecap="butt" stroke-miterlimit="10" stroke-linejoin="miter" fill="none" stroke="#000000" d="M489.344 208.465 499.883 207.383 492.316 214.801ZM489.344 208.465"/>
<text xml:space="preserve" transform="matrix(1 0 0 1 0 0)" font-size="14.000244" font-family="TimesNewRomanPSMT"><tspan y="237.19922" x="460.5 473.98225 482.9704 487.4785 495.71064">WRITE</tspan></text>
<path stroke-width="1" stroke-linecap="butt" stroke-miterlimit="10" stroke-linejoin="miter" fill="none" stroke="#ff0000" d="M454 317H641C647 317 653 311 653 305V283C653 277 647 271 641 271H454C448 271 442 277 442 283V305C442 311 448 317 454 317"/>
<text fill="#ff0000" xml:space="preserve" transform="matrix(1 0 0 1 0 0)" font-size="14.000244" font-family="TimesNewRomanPSMT"><tspan y="286.19923" x="450 453.73808 460.48619 464.22425 470.97236 474.71043 481.45854 488.22065 491.9587 498.70683 505.45494 509.193 515.9411 522.6892 529.4373 536.1854 542.1775 548.9256 554.91769 561.6658 565.4038 572.1519 578.144 584.8921 591.6402 598.3883 604.3804 610.37246 614.1105 620.8586 627.6067 633.59878 639.5908">/bin/nginx:ngx_event_connect_peer</tspan></text>
<path stroke-width="1" stroke-linecap="butt" stroke-miterlimit="10" stroke-linejoin="miter" fill="none" stroke="#ff0000" d="M442 294H653"/>
<text fill="#ff0000" xml:space="preserve" transform="matrix(1 0 0 1 0 0)" font-size="14.000244" font-family="TimesNewRomanPSMT"><tspan y="309.19923" x="452 461.74418">NF</tspan></text>
<path stroke-width="1" stroke-linecap="butt" stroke-miterlimit="10" stroke-linejoin="miter" fill="none" stroke="#ff0000" d="M480 317V294"/>
<text fill="#ff0000" xml:space="preserve" transform="matrix(1 0 0 1 0 0)" font-size="14.000244" font-family="TimesNewRomanPSMT"><tspan y="309.19923" x="490 495.99214 502.74024 513.9824 525.2106 531.20266 537.95077 544.69888 549.207 555.18508 561.9472 568.6953 573.1894 579.18148 585.92959 592.6777 596.4157 600.9238 607.67196 611.41 615.148 621.8961 628.6442 635.39236">command-and-control:9090</tspan></text>
<path stroke-width="1" stroke-linecap="butt" stroke-miterlimit="10" stroke-linejoin="miter" fill="none" stroke="#000000" d="M555.148 161.898C556.945 155.859 558.594 149.242 559.5 143 560.582 135.527 560.379 127.613 559.461 119.941"/>
<path d="M555.887 120.758 557.75 110.328 562.797 119.641ZM555.887 120.758"/>
<path stroke-width="1" stroke-linecap="butt" stroke-miterlimit="10" stroke-linejoin="miter" fill="none" stroke="#000000" d="M555.887 120.758 557.75 110.328 562.797 119.641ZM555.887 120.758"/>
<text xml:space="preserve" transform="matrix(1 0 0 1 0 0)" font-size="14.000244" font-family="TimesNewRomanPSMT"><tspan y="139.19922" x="560.5 569.48818 577.72036 587.4785">READ</tspan></text>
<path stroke-width="1" stroke-linecap="butt" stroke-miterlimit="10" stroke-linejoin="miter" fill="none" stroke="#000000" d="M438.234 192.07C354.18 198.301 245.66 209.23 204.5 226 188.859 232.371 173.625 242.359 160.387 252.695"/>
<path d="M162.965 255.922 152.992 259.5 158.555 250.484ZM162.965 255.922"/>
<path stroke-width="1" stroke-linecap="butt" stroke-miterlimit="10" stroke-linejoin="miter" fill="none" stroke="#000000" d="M162.965 255.922 152.992 259.5 158.555 250.484ZM162.965 255.922"/>
<text xml:space="preserve" transform="matrix(1 0 0 1 0 0)" font-size="14.000244" font-family="TimesNewRomanPSMT"><tspan y="237.19922" x="204.5 217.98223 226.97039 231.47846 239.7106">WRITE</tspan></text>
<path stroke-width="1" stroke-linecap="butt" stroke-miterlimit="10" stroke-linejoin="miter" fill="none" stroke="#000000" d="M438.242 196.207C412.879 202.266 387.031 211.613 365.5 226 352.32 234.805 341.703 248.66 333.914 261.492"/>
<path d="M336.496 263.035 328.516 270.004 330.41 259.578ZM336.496 263.035"/>
<path stroke-width="1" stroke-linecap="butt" stroke-miterlimit="10" stroke-linejoin="miter" fill="none" stroke="#000000" d="M336.496 263.035 328.516 270.004 330.41 259.578ZM336.496 263.035"/>
<text xml:space="preserve" transform="matrix(1 0 0 1 0 0)" font-size="14.000244" font-family="TimesNewRomanPSMT"><tspan y="237.19922" x="365.5 374.48817 384.23234 393.9765 403.73469 411.96684 420.955">CONNECT</tspan></text>
<path stroke-width="1" stroke-linecap="butt" stroke-miterlimit="10" stroke-linejoin="miter" fill="none" stroke="#ff0000" d="M547.5 207.254C547.5 222.555 547.5 243.289 547.5 260.539"/>
<path d="M551 260.277 547.5 270.277 544 260.277ZM551 260.277" fill="#ff0000"/>
<path stroke-width="1" stroke-linecap="butt" stroke-miterlimit="10" stroke-linejoin="miter" fill="none" stroke="#ff0000" d="M551 260.277 547.5 270.277 544 260.277ZM551 260.277"/>
<text fill="#ff0000" xml:space="preserve" transform="matrix(1 0 0 1 0 0)" font-size="14.000244" font-family="TimesNewRomanPSMT"><tspan y="237.19922" x="547.5 556.48818 566.2323 575.97647 585.7346 593.9668 602.95498">CONNECT</tspan></text>
<path stroke-width="1" stroke-linecap="butt" stroke-miterlimit="10" stroke-linejoin="miter" fill="none" stroke="#000000" d="M656.773 176.949C667.898 178.441 675 180.961 675 184.5 675 186.715 672.227 188.527 667.43 189.941"/>
<path d="M668.262 193.539 657.773 192.051 666.902 186.676ZM668.262 193.539"/>
<path stroke-width="1" stroke-linecap="butt" stroke-miterlimit="10" stroke-linejoin="miter" fill="none" stroke="#000000" d="M668.262 193.539 657.773 192.051 666.902 186.676ZM668.262 193.539"/>
<text xml:space="preserve" transform="matrix(1 0 0 1 0 0)" font-size="14.000244" font-family="TimesNewRomanPSMT"><tspan y="188.19922" x="675 688.48226 697.4704 701.9785 710.2107">WRITE</tspan></text>
<path stroke-width="1" stroke-linecap="butt" stroke-miterlimit="10" stroke-linejoin="miter" fill="none" stroke="#000000" d="M683.5 328.5H885.5C891.5 328.5 897.5 322.5 897.5 316.5V271.5C897.5 265.5 891.5 259.5 885.5 259.5H683.5C677.5 259.5 671.5 265.5 671.5 271.5V316.5C671.5 322.5 677.5 328.5 683.5 328.5"/>
<text xml:space="preserve" transform="matrix(1 0 0 1 0 0)" font-size="14.000244" font-family="TimesNewRomanPSMT"><tspan y="274.69923" x="702.5 706.23806 712.98617 716.7242 723.4723 727.2103 733.95846 740.7206 744.4586 751.2067 757.95486 761.6929 768.441 775.1891 781.9372 788.6853 792.42337 796.1614 802.9235 809.67166 816.41976 823.16787 828.41799 834.41006 841.15817 847.90628 852.4003 856.13839 859.8764">/bin/nginx:ngx_linux_sendfile</tspan></text>
<path stroke-width="1" stroke-linecap="butt" stroke-miterlimit="10" stroke-linejoin="miter" fill="none" stroke="#000000" d="M671.5 282.5H897.5"/>
<text xml:space="preserve" transform="matrix(1 0 0 1 0 0)" font-size="14.000244" font-family="TimesNewRomanPSMT"><tspan y="309.19923" x="679.5 687.0041">FF</tspan></text>
<path stroke-width="1" stroke-linecap="butt" stroke-miterlimit="10" stroke-linejoin="miter" fill="none" stroke="#000000" d="M703.5 328.5V282.5"/>
<text xml:space="preserve" transform="matrix(1 0 0 1 0 0)" font-size="14.000244" font-family="TimesNewRomanPSMT"><tspan y="297.69923" x="716.5 720.23806 726.98617 732.23629 736.73037 740.4684 744.2064 750.96859 756.94668 762.9387 766.67678 770.4148 777.1629 783.911 787.64907 794.39718 801.1593 804.89736 811.64547 815.3835 826.6257 830.3637 834.10177 840.84988 847.59799 854.34609 858.09817 864.84628 868.5843 879.8265">/usr/local/nginx/html/50x.html</tspan></text>
<path stroke-width="1" stroke-linecap="butt" stroke-miterlimit="10" stroke-linejoin="miter" fill="none" stroke="#000000" d="M703.5 305.5H897.5"/>
<text xml:space="preserve" transform="matrix(1 0 0 1 0 0)" font-size="14.000244" font-family="TimesNewRomanPSMT"><tspan y="320.69923" x="711.5 715.23806 721.98617 727.23629 731.73037 735.4684 739.2064 745.96859 751.94668 757.9387 761.67678 765.4148 772.1629 778.911 782.64907 789.39718 796.1593 799.89736 806.64547 810.3835 821.6257 825.3637 829.10177 832.8398 839.5879 846.336 852.32809 859.0762 862.82827 869.57638 873.3144 884.5426">/usr/local/nginx/html/index.html</tspan></text>
<path stroke-width="1" stroke-linecap="butt" stroke-miterlimit="10" stroke-linejoin="miter" fill="none" stroke="#000000" d="M593.316 207.41C615.113 217.742 641.582 230.152 665.5 241 675.797 245.672 686.625 250.508 697.383 255.262"/>
<path d="M698.488 252.367 706.227 259.605 695.664 258.77ZM698.488 252.367"/>
<path stroke-width="1" stroke-linecap="butt" stroke-miterlimit="10" stroke-linejoin="miter" fill="none" stroke="#000000" d="M698.488 252.367 706.227 259.605 695.664 258.77ZM698.488 252.367"/>
<text xml:space="preserve" transform="matrix(1 0 0 1 0 0)" font-size="14.000244" font-family="TimesNewRomanPSMT"><tspan y="237.19922" x="665.5 673.0041 681.23629 690.9804 700.72457 708.22866 712.7227 720.9689">SENDFILE</tspan></text>
<path stroke-width="1" stroke-linecap="butt" stroke-miterlimit="10" stroke-linejoin="miter" fill="none" stroke="#000000" d="M928 317H1077C1083 317 1089 311 1089 305V283C1089 277 1083 271 1077 271H928C922 271 916 277 916 283V305C916 311 922 317 928 317"/>
<text xml:space="preserve" transform="matrix(1 0 0 1 0 0)" font-size="14.000244" font-family="TimesNewRomanPSMT"><tspan y="286.19923" x="924 927.73806 934.48617 938.2242 944.9723 948.7103 955.45846 962.2206 965.9586 972.7067 979.45486 983.1929 989.941 996.6891 1003.4372 1010.1853 1016.17739 1022.9255 1028.9176 1035.6658 1039.4038 1046.152 1052.1442 1058.1364 1064.1145 1070.1067 1076.8549">/bin/nginx:ngx_event_accept</tspan></text>
<path stroke-width="1" stroke-linecap="butt" stroke-miterlimit="10" stroke-linejoin="miter" fill="none" stroke="#000000" d="M916 294H1089"/>
<text xml:space="preserve" transform="matrix(1 0 0 1 0 0)" font-size="14.000244" font-family="TimesNewRomanPSMT"><tspan y="309.19923" x="949.5 959.24417">NF</tspan></text>
<path stroke-width="1" stroke-linecap="butt" stroke-miterlimit="10" stroke-linejoin="miter" fill="none" stroke="#000000" d="M1001 317V294"/>
<text xml:space="preserve" transform="matrix(1 0 0 1 0 0)" font-size="14.000244" font-family="TimesNewRomanPSMT"><tspan y="309.19923" x="1034.5 1041.2482 1047.9963">443</tspan></text>
<path stroke-width="1" stroke-linecap="butt" stroke-miterlimit="10" stroke-linejoin="miter" fill="none" stroke="#000000" d="M656.992 199.691C701.488 206.34 753.219 215.199 799.5 226 847.965 237.309 859.258 243.355 906.5 259 914.613 261.688 923.086 264.57 931.496 267.484"/>
<path d="M932.398 264.441 940.688 271.039 930.094 271.051ZM932.398 264.441"/>
<path stroke-width="1" stroke-linecap="butt" stroke-miterlimit="10" stroke-linejoin="miter" fill="none" stroke="#000000" d="M932.398 264.441 940.688 271.039 930.094 271.051ZM932.398 264.441"/>
<text xml:space="preserve" transform="matrix(1 0 0 1 0 0)" font-size="14.000244" font-family="TimesNewRomanPSMT"><tspan y="237.19922" x="853.5 863.24417 872.2323 881.22048 889.45266 896.9567">ACCEPT</tspan></text>
<path stroke-width="1" stroke-linecap="butt" stroke-miterlimit="10" stroke-linejoin="miter" fill="none" stroke="#000000" d="M765.949 259.523C757.559 247.246 746.57 234.328 733.5 226 713.68 213.371 690.52 204.637 667.406 198.602"/>
<path d="M666.684 201.785 657.801 196.016 668.344 194.984ZM666.684 201.785"/>
<path stroke-width="1" stroke-linecap="butt" stroke-miterlimit="10" stroke-linejoin="miter" fill="none" stroke="#000000" d="M666.684 201.785 657.801 196.016 668.344 194.984ZM666.684 201.785"/>
<text xml:space="preserve" transform="matrix(1 0 0 1 0 0)" font-size="14.000244" font-family="TimesNewRomanPSMT"><tspan y="237.19922" x="751.5 764.98226 773.9704 778.4785 786.7107">WRITE</tspan></text>
<path stroke-width="1" stroke-linecap="butt" stroke-miterlimit="10" stroke-linejoin="miter" fill="none" stroke="#000000" d="M987.871 271.277C976.188 255.844 958.348 236.121 937.5 226 891.312 203.574 764.148 193.516 667.473 189.035"/>
<path d="M667.566 192.5 657.734 188.555 667.879 185.504ZM667.566 192.5"/>
<path stroke-width="1" stroke-linecap="butt" stroke-miterlimit="10" stroke-linejoin="miter" fill="none" stroke="#000000" d="M667.566 192.5 657.734 188.555 667.879 185.504ZM667.566 192.5"/>
<text xml:space="preserve" transform="matrix(1 0 0 1 0 0)" font-size="14.000244" font-family="TimesNewRomanPSMT"><tspan y="237.19922" x="959.5 972.98226 981.9704 986.4785 994.7107">WRITE</tspan></text>
</g>
</svg>
